# Own generic ATGM tube; +Z forward; origin at native muzzle. metres.
o launcher_box_0
v -0.120000 0.104000 -1.300000
v 0.120000 0.104000 -1.300000
v 0.120000 0.120000 -1.300000
v -0.120000 0.120000 -1.300000
v -0.120000 0.104000 0.000000
v 0.120000 0.104000 0.000000
v 0.120000 0.120000 0.000000
v -0.120000 0.120000 0.000000
f 1 4 3 2
f 5 6 7 8
f 1 2 6 5
f 4 8 7 3
f 1 5 8 4
f 2 3 7 6
o launcher_box_1
v -0.120000 -0.120000 -1.300000
v 0.120000 -0.120000 -1.300000
v 0.120000 -0.104000 -1.300000
v -0.120000 -0.104000 -1.300000
v -0.120000 -0.120000 0.000000
v 0.120000 -0.120000 0.000000
v 0.120000 -0.104000 0.000000
v -0.120000 -0.104000 0.000000
f 9 12 11 10
f 13 14 15 16
f 9 10 14 13
f 12 16 15 11
f 9 13 16 12
f 10 11 15 14
o launcher_box_2
v -0.120000 -0.104000 -1.300000
v -0.104000 -0.104000 -1.300000
v -0.104000 0.104000 -1.300000
v -0.120000 0.104000 -1.300000
v -0.120000 -0.104000 0.000000
v -0.104000 -0.104000 0.000000
v -0.104000 0.104000 0.000000
v -0.120000 0.104000 0.000000
f 17 20 19 18
f 21 22 23 24
f 17 18 22 21
f 20 24 23 19
f 17 21 24 20
f 18 19 23 22
o launcher_box_3
v 0.104000 -0.104000 -1.300000
v 0.120000 -0.104000 -1.300000
v 0.120000 0.104000 -1.300000
v 0.104000 0.104000 -1.300000
v 0.104000 -0.104000 0.000000
v 0.120000 -0.104000 0.000000
v 0.120000 0.104000 0.000000
v 0.104000 0.104000 0.000000
f 25 28 27 26
f 29 30 31 32
f 25 26 30 29
f 28 32 31 27
f 25 29 32 28
f 26 27 31 30
o launcher_box_4
v -0.075000 -0.172000 -0.830000
v 0.075000 -0.172000 -0.830000
v 0.075000 -0.120000 -0.830000
v -0.075000 -0.120000 -0.830000
v -0.075000 -0.172000 -0.570000
v 0.075000 -0.172000 -0.570000
v 0.075000 -0.120000 -0.570000
v -0.075000 -0.120000 -0.570000
f 33 36 35 34
f 37 38 39 40
f 33 34 38 37
f 36 40 39 35
f 33 37 40 36
f 34 35 39 38
